<svg width="22" height="18" viewBox="0 0 22 18" fill="none" xmlns="http://www.w3.org/2000/svg">
<path d="M21.1623 2.65593C20.3989 2.99362 19.5893 3.2154 18.7603 3.31393C19.6341 2.79136 20.288 1.96894 20.6003 0.999927C19.7803 1.48793 18.8813 1.82993 17.9443 2.01493C17.3149 1.34151 16.4807 0.89489 15.5713 0.744511C14.6618 0.594133 13.7282 0.748418 12.9156 1.18338C12.1029 1.61834 11.4567 2.30961 11.0774 3.14972C10.6981 3.98983 10.607 4.93171 10.8183 5.82893C9.15541 5.74558 7.52863 5.31345 6.04358 4.56059C4.55854 3.80773 3.24843 2.75097 2.1983 1.45893C1.82659 2.09738 1.63125 2.82315 1.6323 3.56193C1.6323 5.01193 2.3703 6.29293 3.4923 7.04293C2.82831 7.02202 2.17893 6.84271 1.5983 6.51993V6.57193C1.5985 7.53763 1.93267 8.47354 2.54414 9.22099C3.15562 9.96843 4.00678 10.4814 4.9533 10.6729C4.33691 10.84 3.6906 10.8646 3.0633 10.7449C3.33016 11.5762 3.8503 12.3031 4.55089 12.824C5.25147 13.3449 6.09743 13.6337 6.9703 13.6499C6.10278 14.3313 5.10947 14.8349 4.04718 15.1321C2.98488 15.4293 1.87442 15.5142 0.779297 15.3819C2.69099 16.6114 4.91639 17.264 7.1893 17.2619C14.8823 17.2619 19.0893 10.8889 19.0893 5.36193C19.0893 5.18193 19.0843 4.99993 19.0763 4.82193C19.8952 4.23009 20.6019 3.49695 21.1633 2.65693L21.1623 2.65593Z" fill="white"/>
</svg>
