<svg width="21" height="21" viewBox="0 0 21 21" fill="none" xmlns="http://www.w3.org/2000/svg">
<path d="M11.9277 0.094077C9.43524 -0.235068 6.90293 0.312629 4.79833 1.63604C2.69372 2.95944 1.15897 4.96918 0.477463 7.29414C-0.204044 9.61911 0.0137216 12.1023 1.09055 14.2851C2.16738 16.468 4.03054 18.2031 6.336 19.1701C6.27366 18.4019 6.33088 17.6291 6.5058 16.8771C6.6985 16.0381 7.8558 11.4141 7.8558 11.4141C7.62535 10.9182 7.51018 10.38 7.5183 9.83708C7.5183 8.35208 8.41101 7.24408 9.52142 7.24408C9.72091 7.24129 9.91868 7.27977 10.1013 7.35691C10.2839 7.43404 10.4471 7.54802 10.5797 7.6911C10.7123 7.83418 10.8113 8.00299 10.8699 8.18607C10.9285 8.36914 10.9454 8.56219 10.9193 8.75208C10.9193 9.65208 10.3173 11.0141 10.0027 12.2921C9.9405 12.5265 9.93656 12.7716 9.99116 13.0077C10.0458 13.2438 10.1574 13.4643 10.317 13.6514C10.4766 13.8385 10.6798 13.987 10.9102 14.0849C11.1406 14.1828 11.3917 14.2274 11.6433 14.2151C13.6204 14.2151 14.9454 11.7841 14.9454 8.91408C14.9454 6.71408 13.4277 5.06608 10.6298 5.06608C9.96035 5.04111 9.29265 5.147 8.66718 5.37733C8.04172 5.60766 7.47154 5.95762 6.99127 6.40597C6.51099 6.85431 6.13065 7.39168 5.87332 7.98545C5.61599 8.57922 5.48706 9.21701 5.49434 9.86008C5.46451 10.5734 5.70424 11.273 6.16934 11.8301C6.25625 11.8924 6.31971 11.9801 6.35014 12.08C6.38058 12.1799 6.37635 12.2867 6.33809 12.3841C6.29017 12.5681 6.16934 13.0071 6.12142 13.1681C6.11145 13.2227 6.08827 13.2743 6.05374 13.3187C6.0192 13.3631 5.97428 13.3991 5.9226 13.4238C5.87091 13.4486 5.81391 13.4613 5.75617 13.461C5.69843 13.4607 5.64157 13.4473 5.59017 13.4221C4.1485 12.8681 3.46934 11.3451 3.46934 9.60608C3.46934 6.75908 5.95267 3.35108 10.9214 3.35108C14.8756 3.35108 17.5048 6.12808 17.5048 9.09808C17.5048 13.0071 15.237 15.9461 11.886 15.9461C11.3852 15.9614 10.8884 15.8553 10.4416 15.6375C9.99475 15.4198 9.61236 15.0973 9.32976 14.7001C9.32976 14.7001 8.72767 17.0161 8.60892 17.4541C8.36652 18.2108 8.00883 18.9289 7.54746 19.5851C8.50892 19.8651 9.50788 20.0051 10.512 20.0011C11.8804 20.0021 13.2354 19.7441 14.4997 19.2417C15.764 18.7392 16.9126 18.0024 17.8798 17.0732C18.847 16.144 19.6138 15.0408 20.1363 13.8268C20.6587 12.6127 20.9266 11.3117 20.9245 9.99808C20.9233 7.58308 20.0118 5.25007 18.3585 3.42986C16.7052 1.60964 14.4218 0.425141 11.9298 0.095077L11.9277 0.094077Z" fill="white"/>
</svg>
