<svg width="73" height="19" viewBox="0 0 73 19" fill="none" xmlns="http://www.w3.org/2000/svg">
<path d="M15.392 2.16V18H10.016L5.696 10.152L4.688 8.016H4.64L4.736 11.136V18H0.464V2.16H5.816L10.136 10.008L11.168 12.144H11.192L11.096 9.024V2.16H15.392ZM22.8834 6V18H18.0354V6H22.8834ZM25.3314 4.752H21.9474L20.4594 2.832L18.9714 4.752H15.5874L18.1794 0.527999H22.7394L25.3314 4.752ZM25.2307 18V6H29.5987L29.7187 8.472C30.0707 7.592 30.5987 6.92 31.3027 6.456C32.0067 5.992 32.8467 5.76 33.8227 5.76C34.7187 5.76 35.4787 5.968 36.1027 6.384C36.7427 6.784 37.1987 7.376 37.4707 8.16C37.8547 7.376 38.3907 6.784 39.0787 6.384C39.7827 5.968 40.5827 5.76 41.4787 5.76C42.6627 5.76 43.6067 6.112 44.3107 6.816C45.0307 7.52 45.3907 8.544 45.3907 9.888V18H40.5427V11.088C40.5427 10.448 40.4387 10.008 40.2307 9.768C40.0227 9.512 39.7267 9.384 39.3427 9.384C38.8467 9.384 38.4547 9.576 38.1667 9.96C37.8787 10.328 37.7347 10.896 37.7347 11.664V18H32.8867V11.088C32.8867 10.448 32.7827 10.008 32.5747 9.768C32.3667 9.512 32.0707 9.384 31.6867 9.384C31.2067 9.384 30.8147 9.568 30.5107 9.936C30.2227 10.304 30.0787 10.888 30.0787 11.688V18H25.2307ZM53.8513 18.24C51.7713 18.24 50.1393 17.696 48.9553 16.608C47.7713 15.52 47.1793 13.984 47.1793 12C47.1793 10.672 47.4513 9.544 47.9953 8.616C48.5393 7.688 49.2993 6.984 50.2753 6.504C51.2513 6.008 52.3793 5.76 53.6593 5.76C54.9713 5.76 56.0833 6.008 56.9953 6.504C57.9233 6.984 58.6273 7.656 59.1073 8.52C59.6033 9.384 59.8513 10.392 59.8513 11.544C59.8513 12.136 59.8113 12.64 59.7313 13.056H51.8353C51.9473 13.776 52.1713 14.272 52.5073 14.544C52.8593 14.8 53.3233 14.928 53.8993 14.928C54.3953 14.928 54.7873 14.824 55.0753 14.616C55.3793 14.408 55.5953 14.12 55.7233 13.752L59.6113 14.904C59.4033 15.64 59.0113 16.256 58.4353 16.752C57.8593 17.248 57.1713 17.624 56.3713 17.88C55.5713 18.12 54.7313 18.24 53.8513 18.24ZM53.6593 9.048C53.1473 9.048 52.7393 9.192 52.4353 9.48C52.1473 9.768 51.9553 10.256 51.8593 10.944H55.2673C55.2033 10.32 55.0433 9.848 54.7873 9.528C54.5473 9.208 54.1713 9.048 53.6593 9.048ZM66.9331 18.24C65.7491 18.24 64.6291 18.064 63.5731 17.712C62.5171 17.36 61.6131 16.84 60.8611 16.152L62.8051 13.584C63.2371 14.016 63.7891 14.392 64.4611 14.712C65.1491 15.032 65.8691 15.192 66.6211 15.192C67.0051 15.192 67.3251 15.144 67.5811 15.048C67.8531 14.936 67.9891 14.768 67.9891 14.544C67.9891 14.384 67.9171 14.256 67.7731 14.16C67.6451 14.048 67.3651 13.952 66.9331 13.872L65.6851 13.632C64.0371 13.312 62.8771 12.848 62.2051 12.24C61.5331 11.616 61.1971 10.8 61.1971 9.792C61.1971 9.136 61.3971 8.504 61.7971 7.896C62.2131 7.272 62.8611 6.76 63.7411 6.36C64.6371 5.96 65.7891 5.76 67.1971 5.76C68.4291 5.76 69.5251 5.928 70.4851 6.264C71.4451 6.6 72.2211 7.064 72.8131 7.656L70.9171 10.152C70.4851 9.736 69.9411 9.408 69.2851 9.168C68.6291 8.928 68.0051 8.808 67.4131 8.808C66.4851 8.808 66.0211 9.016 66.0211 9.432C66.0211 9.592 66.1091 9.736 66.2851 9.864C66.4771 9.976 66.8211 10.08 67.3171 10.176L69.2371 10.512C70.5011 10.736 71.4211 11.152 71.9971 11.76C72.5731 12.368 72.8611 13.112 72.8611 13.992C72.8611 14.776 72.6531 15.488 72.2371 16.128C71.8211 16.768 71.1731 17.28 70.2931 17.664C69.4131 18.048 68.2931 18.24 66.9331 18.24Z" fill="#151C22"/>
</svg>
